<svg version="1.1" xmlns="http://www.w3.org/2000/svg" x="0px" y="0px" width="40px" height="40px" viewBox="0 0 40 40"><path fill="#ffffff" d="M29.714,19.65c-0.186-0.23-4.608-5.632-9.208-5.642c-4.585,0-9.022,5.374-9.209,5.603l-0.306,0.375l0.305,0.368 c0.186,0.23,4.59,5.638,9.179,5.638l0,0l0,0c4.854,0,9.032-5.366,9.219-5.594l0.316-0.373L29.714,19.65z M20.47,24.805 c-3.362-0.007-6.849-3.624-7.912-4.816c1.066-1.187,4.579-4.781,7.953-4.781c3.361,0.007,6.846,3.623,7.909,4.815 C27.354,21.211,24.111,24.805,20.47,24.805"/><path fill="#ffffff" d="M20.802,16.544c-1.889,0-3.428,1.569-3.432,3.481c-0.002,0.928,0.353,1.829,0.999,2.486 c0.647,0.659,1.487,1.06,2.404,1.06l0,0l0,0c1.781,0,3.437-1.611,3.44-3.523C24.218,18.131,22.701,16.549,20.802,16.544z M20.77,22.28c-0.596-0.002-1.137-0.239-1.558-0.668c-0.423-0.431-0.656-1.003-0.654-1.611c0.002-1.252,1.009-2.271,2.249-2.271 c1.237,0.003,2.223,1.026,2.22,2.28C23.024,21.26,21.955,22.276,20.77,22.28z"/></svg>
