<svg version="1.1" xmlns="http://www.w3.org/2000/svg" x="0px" y="0px" width="40px" height="40px" viewBox="0 0 40 40"><path fill="#ffffff" d="M10,11v17.5c0,1.379,1.122,2.5,2.5,2.5h15c1.378,0,2.5-1.121,2.5-2.5V11H10z M28.75,28.5 c0,0.689-0.561,1.25-1.25,1.25h-15c-0.689,0-1.25-0.561-1.25-1.25V12.25h17.5V28.5z"/><path fill="#ffffff" d="M13.75,19.75h5.625c0.689,0,1.25-0.561,1.25-1.25v-3.75c0-0.689-0.561-1.25-1.25-1.25H13.75 c-0.689,0-1.25,0.561-1.25,1.25v3.75C12.5,19.189,13.061,19.75,13.75,19.75z M13.75,14.75h5.625l-0.002,3.75H13.75V14.75z"/><path fill="#ffffff" d="M22.5,14.75h4.375c0.345,0,0.625-0.28,0.625-0.625S27.22,13.5,26.875,13.5H22.5 c-0.345,0-0.625,0.28-0.625,0.625S22.155,14.75,22.5,14.75z"/><path fill="#ffffff" d="M22.5,17.25h4.375c0.345,0,0.625-0.28,0.625-0.625S27.22,16,26.875,16H22.5c-0.345,0-0.625,0.28-0.625,0.625S22.155,17.25,22.5,17.25z"/><path fill="#ffffff" d="M22.5,19.75h4.375c0.345,0,0.625-0.28,0.625-0.625S27.22,18.5,26.875,18.5H22.5c-0.345,0-0.625,0.28-0.625,0.625S22.155,19.75,22.5,19.75z"/><path fill="#ffffff" d="M13.125,22.25h13.75c0.345,0,0.625-0.28,0.625-0.625c0-0.346-0.28-0.625-0.625-0.625h-13.75c-0.345,0-0.625,0.279-0.625,0.625C12.5,21.97,12.78,22.25,13.125,22.25z"/><path fill="#ffffff" d="M13.125,24.75h13.75c0.345,0,0.625-0.28,0.625-0.625c0-0.346-0.28-0.625-0.625-0.625h-13.75c-0.345,0-0.625,0.279-0.625,0.625C12.5,24.47,12.78,24.75,13.125,24.75z"/><path fill="#ffffff" d="M13.125,27.25h13.75c0.345,0,0.625-0.28,0.625-0.625c0-0.346-0.28-0.625-0.625-0.625h-13.75c-0.345,0-0.625,0.279-0.625,0.625C12.5,26.97,12.78,27.25,13.125,27.25z"/></svg>
