<svg version="1.1" xmlns="http://www.w3.org/2000/svg" x="0px" y="0px" width="128px" height="128px" viewBox="0 0 128 128"><path fill="#ffffff" d="M125.5,99.5c0,0-20.62-18.88-22.75-37.75s3.66-61.13-38.73-61.13 c-42.4,0-36.61,42.26-38.74,61.13C23.16,80.62,2.53,99.5,2.53,99.5c-5.75,11.38,1.63,11.25,1.63,11.25h39.51 c0,0,3.91,16.97,20.33,16.97l0.02-8.72c0,0-9.35,0.5-11.69-8.25H75.7C73.36,119.5,64.02,119,64.02,119l0.01,8.72 c16.42,0,20.34-16.97,20.34-16.97h39.51C123.88,110.75,131.25,110.88,125.5,99.5z M10.28,102.88c6.38-3.63,20.38-24.63,22.63-37.13 s3.62-35.13,3.62-35.13C40.24,7.63,64.02,8.73,64.02,8.73s23.77-1.1,27.48,21.89c0,0,1.38,22.63,3.62,35.13 c2.26,12.5,16.26,33.5,22.63,37.13H10.28z"/></svg>
