<?xml version="1.0" encoding="utf-8"?>
<!-- Generator: Adobe Illustrator 16.0.0, SVG Export Plug-In . SVG Version: 6.00 Build 0)  -->
<!DOCTYPE svg PUBLIC "-//W3C//DTD SVG 1.1//EN" "http://www.w3.org/Graphics/SVG/1.1/DTD/svg11.dtd">
<svg version="1.1" id="Layer_1" xmlns="http://www.w3.org/2000/svg" xmlns:xlink="http://www.w3.org/1999/xlink" x="0px" y="0px"
	 width="84.5px" height="82.75px" viewBox="0 0 84.5 82.75" enable-background="new 0 0 84.5 82.75" xml:space="preserve">
<path fill="#F7751E" d="M20.676,4.09c-8.699,0-15.708,7.012-15.708,15.706v43.137c0,8.664,7.01,15.727,15.708,15.727h43.186
	c8.662,0,15.67-7.063,15.67-15.727c0,0,0.002-50.603,0.002-58.843H20.676z"/>
<path fill="#FFFFFF" d="M72.25,59.826L72.25,59.826c-0.244,1.738-1.168,2.521-2.767,2.521c-1.688,0-2.636-0.782-2.839-2.524V28.636
	c-4.756,3.298-12.801,8.507-24.142,15.734c-0.331,0.192-15.63-9.672-24.81-15.696v31.221c-0.257,1.67-1.18,2.453-2.773,2.453
	c-1.275,0-2.153-0.719-2.669-2.063V22.536c0.425-1.286,1.252-1.925,2.396-1.925c0.818,0,1.732,0.342,2.625,1.033
	c3.117,2.28,24.122,15.861,24.858,16.374c5.585-3.627,13.936-9.102,25.05-16.374c0.413-0.324,0.943-0.691,1.636-1.108
	c0.244-0.095,0.488-0.134,0.771-0.134c0.642,0,1.275,0.313,1.832,0.835c0.553,0.523,0.829,1.087,0.829,1.727L72.25,59.826
	L72.25,59.826z"/>
</svg>
