<?xml version="1.0" encoding="utf-8"?>
<!-- Generator: Adobe Illustrator 16.0.0, SVG Export Plug-In . SVG Version: 6.00 Build 0)  -->
<!DOCTYPE svg PUBLIC "-//W3C//DTD SVG 1.1//EN" "http://www.w3.org/Graphics/SVG/1.1/DTD/svg11.dtd">
<svg version="1.1" id="Layer_1" xmlns="http://www.w3.org/2000/svg" xmlns:xlink="http://www.w3.org/1999/xlink" x="0px" y="0px"
	 width="576px" height="118.5px" viewBox="0 0 576 118.5" enable-background="new 0 0 576 118.5" xml:space="preserve">
<path fill="#F7751E" d="M21.755,5.717c-8.699,0-15.708,7.012-15.708,15.706v43.138c0,8.664,7.01,15.725,15.708,15.725h43.186
	c8.662,0,15.67-7.061,15.67-15.725c0,0,0.002-50.604,0.002-58.844H21.755z"/>
<path fill="#FFFFFF" d="M73.329,61.449L73.329,61.449c-0.244,1.738-1.168,2.521-2.766,2.521c-1.688,0-2.636-0.782-2.839-2.524
	V30.259c-4.756,3.297-12.801,8.506-24.142,15.734c-0.331,0.192-15.63-9.672-24.809-15.696v31.221
	c-0.257,1.67-1.18,2.453-2.774,2.453c-1.275,0-2.153-0.719-2.669-2.063V24.159c0.425-1.286,1.252-1.925,2.396-1.925
	c0.818,0,1.732,0.342,2.625,1.033c3.117,2.281,24.122,15.862,24.858,16.374c5.585-3.627,13.936-9.101,25.05-16.374
	c0.413-0.324,0.943-0.691,1.636-1.108c0.244-0.095,0.488-0.134,0.77-0.134c0.642,0,1.276,0.314,1.832,0.835
	c0.553,0.524,0.829,1.087,0.829,1.727L73.329,61.449L73.329,61.449z"/>
<g>
	<g>
		<path fill="#555555" d="M568.441,60.527c-0.444,1.836-1.332,2.795-2.563,2.795c-0.919,0-2.041-0.469-3.482-1.455
			c-0.886-0.732-46.168-30.732-48.521-32.192v31.212c-0.199,1.59-1.17,2.438-2.761,2.438c-1.279,0-2.162-0.696-2.644-2.125V23.536
			c0.65-1.467,1.448-2.165,2.625-2.165c0.807,0,1.917,0.521,3.3,1.582c1.124,0.773,40.896,27.324,48.444,32.363V24.132
			c0.277-1.697,1.274-2.517,2.773-2.517c1.271,0,2.247,0.72,2.821,2.151L568.441,60.527L568.441,60.527z"/>
	</g>
	<g>
		<path fill="#555555" d="M493.43,42.513c0,1.997-0.229,3.604-0.563,4.807c-0.349,1.164-1.141,2.654-2.272,4.396
			c-2.88,4.31-7.162,7.493-12.945,9.55c-4.35,1.562-9.111,2.235-14.199,2.235c-2.985,0-4.859-0.015-5.518-0.015
			c-1.818-0.145-3.842-0.639-6.312-1.34c-5.571-1.853-9.92-4.321-13.03-7.525c-3.453-3.395-5.128-7.46-5.128-12.112
			c0-3.521,0.896-6.563,2.773-9.129c5.875-7.925,14.942-11.909,27.216-11.909c2.709,0,4.729,0.112,6.063,0.297
			c6.566,0.881,12.131,3.124,16.604,6.66C490.99,32.325,493.43,37.045,493.43,42.513z M488.022,42.521
			c0-4.257-2.563-7.934-7.688-10.914c-3.858-2.248-7.646-3.511-11.175-3.83c-2.363-0.237-4.271-0.32-5.712-0.32
			c-4.254,0-7.736,0.432-10.315,1.348c-1.408,0.467-3.289,1.176-5.664,2.145c-5.702,3.032-8.605,6.898-8.605,11.564
			c0,5.025,3.068,8.934,9.141,11.787c4.801,2.151,9.929,3.338,15.448,3.338c5.487,0,10.444-1,14.659-2.882
			c2.905-1.334,5.3-2.977,6.966-5.046C487.007,47.484,488.022,45.091,488.022,42.521z"/>
	</g>
	<path fill="#555555" d="M283.204,59.627c-1.813-2.838-27.494-37.076-28.305-37.858c-0.366-0.273-0.854-0.396-1.504-0.396
		c-0.617,0.007-1.063,0.196-1.306,0.466c-2.289,2.555-26.178,34.438-26.905,35.349c-1.108,1.482-1.641,2.653-1.641,3.621
		c0,0.402,0.083,0.767,0.331,1.123c0.69,0.95,1.38,1.541,2.15,1.541c0.902,0,1.967-0.783,3.145-2.375
		c0.894-1.188,24.237-32.256,24.237-32.256s23.389,31.033,24.283,32.215c1.264,1.625,2.327,2.416,3.282,2.416
		c0.771,0,1.464-0.604,2.075-1.605C283.577,60.927,283.64,60.223,283.204,59.627z"/>
	<g>
		<path fill="#555555" d="M223.619,21.812H91.406c-0.57,0-1.229,0.325-1.975,0.958c-0.74,0.644-1.115,1.307-1.115,1.991v3.03
			h104.376v33.74c0.593,1.432,1.516,2.128,2.777,2.128c1.216,0,2.118-0.696,2.707-2.124V27.791h25.851
			c1.304-0.604,1.957-1.586,1.957-2.957C225.979,23.14,225.18,22.135,223.619,21.812z"/>
		<path fill="#555555" d="M146.362,45.859c1.317-0.782,1.979-1.813,1.979-3.049c0-1.242-0.661-2.203-1.979-2.885H88.316v21.013
			c0,0.5,0.345,1.117,1.021,1.854c0.684,0.741,1.221,1.047,1.68,1.047h55.347c1.317-0.723,1.979-1.803,1.979-3.026
			c0-1.239-0.661-2.146-1.979-2.838H93.849V45.859H146.362z"/>
	</g>
	<path fill="#555555" d="M418.393,60.927c-0.18-1.124-0.664-1.918-1.451-2.413c-7.773-4.947-14.105-9.063-18.926-12.297h10.277
		c3.337-0.394,5.983-1.959,7.947-4.691c1.319-1.909,1.979-4.462,2.151-7.66c0.121-2.227-0.691-4.612-2.332-7.256
		c-1.668-2.453-4.235-3.955-7.693-4.414h-125.09c-1.601,0.41-2.366,1.406-2.366,2.987c0,1.313,0.675,2.303,1.989,2.945h25.769V61.92
		c0.59,1.424,1.506,2.133,2.771,2.133c1.237,0,2.174-0.705,2.764-2.128V28.129h93.902c1.457,0.18,2.593,0.9,3.511,2.154
		c0.804,1.107,1.133,2.474,1.133,4.05c0,1.531-0.334,2.845-1.133,3.963c-0.873,1.204-2.007,1.875-3.511,1.975h-45.521
		c-3.538,0.416-4.357,3.709-4.563,5.054v16.801c0.625,1.364,1.526,2.032,2.711,2.032c1.24,0,2.203-0.668,2.785-2.037V46.217H387.8
		c8.935,5.785,17.675,11.57,26.325,17.352c0.536,0.416,1.094,0.567,1.671,0.593c0.622,0.096,1.229-0.251,1.823-1.124
		C418.227,62.208,418.511,61.559,418.393,60.927z"/>
</g>
<g>
	<path fill="#8C8C8C" d="M360.924,111.5V82.945h3.744V111.5H360.924z"/>
	<path fill="#8C8C8C" d="M398.653,111.5h-4.273l-17.597-23.965h-0.177c0.234,2.813,0.353,5.391,0.353,7.734v16.23H373.5V82.945
		h4.229l17.554,23.867h0.177c-0.03-0.352-0.096-1.481-0.198-3.389c-0.104-1.907-0.14-3.271-0.11-4.092V82.945h3.502V111.5z"/>
	<path fill="#8C8C8C" d="M417.417,111.5h-3.744V85.895h-10.197v-2.949h24.139v2.949h-10.197V111.5z"/>
	<path fill="#8C8C8C" d="M436.203,99.625V111.5h-3.744V82.945h8.832c3.949,0,6.868,0.671,8.755,2.012s2.83,3.359,2.83,6.055
		c0,3.776-2.158,6.328-6.476,7.656l8.744,12.832h-4.427l-7.797-11.875H436.203z M436.203,96.773h5.132
		c2.643,0,4.581-0.466,5.814-1.396S449,93.05,449,91.188c0-1.888-0.628-3.249-1.884-4.082c-1.255-0.833-3.271-1.25-6.046-1.25
		h-4.867V96.773z"/>
	<path fill="#8C8C8C" d="M480.583,111.5l-4.008-9.082h-12.906l-3.965,9.082h-3.788l12.73-28.672h3.149L484.46,111.5H480.583z
		 M475.407,99.43l-3.744-8.848c-0.484-1.12-0.983-2.493-1.497-4.121c-0.323,1.25-0.786,2.624-1.388,4.121l-3.788,8.848H475.407z"/>
	<path fill="#8C8C8C" d="M514.038,111.5h-4.273l-17.597-23.965h-0.177c0.234,2.813,0.353,5.391,0.353,7.734v16.23h-3.458V82.945
		h4.229l17.554,23.867h0.177c-0.03-0.352-0.096-1.481-0.198-3.389c-0.104-1.907-0.14-3.271-0.11-4.092V82.945h3.502V111.5z"/>
	<path fill="#8C8C8C" d="M540.842,111.5h-17.95V82.945h17.95v2.949h-14.206v9.199h13.347v2.93h-13.347v10.508h14.206V111.5z"/>
	<path fill="#8C8C8C" d="M557.889,111.5h-3.744V85.895h-10.197v-2.949h24.139v2.949h-10.197V111.5z"/>
</g>
</svg>
